<svg width="1080" height="780" viewBox="0 0 1080 780" xmlns="http://www.w3.org/2000/svg">
  <polygon points="9,57 55,24 81,64 115,32 148,25 177,60 220,22 264,44 291,18 319,30 352,49 397,18 440,29 488,58 536,51 575,31 615,54 649,68 675,65 706,61 745,38 779,26 811,65 847,23 875,41 904,39 941,55 975,68 1002,63 1042,51 1071,41 1089,52 1089,791 9,791" fill="#1B1A17" opacity="0.22"/>
  <polygon points="0,46 46,13 72,53 106,21 139,14 168,49 211,11 255,33 282,7 310,19 343,38 388,7 431,18 479,47 527,40 566,20 606,43 640,57 666,54 697,50 736,27 770,15 802,54 838,12 866,30 895,28 932,44 966,57 993,52 1033,40 1062,30 1080,41 1080,780 0,780" fill="#FFD437"/>
</svg>
